<svg width="34" height="34" viewBox="0 0 34 34" fill="none" xmlns="http://www.w3.org/2000/svg">
<path fill-rule="evenodd" clip-rule="evenodd" d="M11.6881 1.09235C10.6819 0.698045 9.58368 0.817323 8.39343 1.45019C7.25493 2.05555 6.5678 2.88556 6.33202 3.94025C6.09623 4.99495 6.28102 6.09153 6.88637 7.23004C7.24408 7.90279 7.91002 8.84313 8.88418 10.051C9.83083 11.2072 11.0032 12.4757 12.4012 13.8566L15.356 16.8888L11.2109 17.7502C9.33145 18.0857 7.70197 18.4542 6.32238 18.8559C4.86352 19.2333 3.72013 19.6421 2.89212 20.0824C1.75363 20.6877 0.987214 21.4935 0.592898 22.4997C0.198595 23.5059 0.317873 24.6042 0.950741 25.7944C1.5561 26.9329 2.38611 27.62 3.4408 27.8558C4.4955 28.0916 5.59208 27.9068 6.73059 27.3015C7.40334 26.9438 8.34368 26.2778 9.55159 25.3037C10.7078 24.357 11.9763 23.1847 13.3571 21.7867L16.388 18.833L17.2496 22.979C17.5851 24.8584 17.9537 26.4879 18.3553 27.8674C18.7327 29.3263 19.1416 30.4698 19.5818 31.2977C20.1872 32.4362 20.993 33.2027 21.9991 33.5969C23.0054 33.9913 24.1036 33.872 25.2939 33.2391C26.4324 32.6337 27.1195 31.8038 27.3552 30.749C27.5911 29.6944 27.4063 28.5978 26.8009 27.4593C26.4432 26.7866 25.7773 25.8463 24.8031 24.6382C23.8565 23.4821 22.6842 22.2136 21.2861 20.8327L18.3309 17.8003L22.4773 16.9386C24.3567 16.6031 25.9862 16.2345 27.3657 15.8329C28.8245 15.4555 29.968 15.0467 30.796 14.6064C31.9345 14.0011 32.7009 13.1953 33.0951 12.1891C33.4896 11.1828 33.3702 10.0846 32.7373 8.89436C32.132 7.75588 31.302 7.0687 30.2472 6.833C29.1927 6.59715 28.096 6.78197 26.9575 7.38731C26.2848 7.745 25.3446 8.4109 24.1365 9.38514C22.9804 10.3317 21.7119 11.5041 20.3311 12.9021L17.2993 15.8565L16.4377 11.7103C16.1022 9.8309 15.7336 8.20142 15.332 6.82184C14.9546 5.36297 14.5457 4.21958 14.1055 3.39157C13.5001 2.25306 12.6944 1.48666 11.6881 1.09235Z" fill="#F2DEC1"/>
</svg>
