<svg width="34" height="34" viewBox="0 0 34 34" fill="none" xmlns="http://www.w3.org/2000/svg">
<path fill-rule="evenodd" clip-rule="evenodd" d="M27.7463 3.98203C27.5106 2.92733 26.7976 2.08356 25.6073 1.45069C24.4688 0.845333 23.3964 0.739819 22.3902 1.13412C21.384 1.52842 20.5782 2.29482 19.9729 3.43333C19.6151 4.10608 19.208 5.184 18.7513 6.66707C18.3221 8.09841 17.9261 9.77964 17.563 11.7108L16.7016 15.8561L13.6695 12.9013C12.3404 11.5308 11.1236 10.386 10.0192 9.46683C8.89056 8.46843 7.91225 7.74913 7.08424 7.30887C5.94575 6.70352 4.84915 6.51872 3.79447 6.75449C2.73977 6.99027 1.896 7.70328 1.26313 8.89353C0.657772 10.032 0.552259 11.1044 0.946562 12.1106C1.34086 13.1168 2.10726 13.9226 3.24577 14.528C3.91852 14.8857 4.99644 15.2929 6.47951 15.7495C7.91083 16.1787 9.59208 16.5748 11.5233 16.9378L15.6668 17.7989L12.7114 20.8316C11.341 22.1606 10.1961 23.3774 9.27704 24.4818C8.27863 25.6104 7.55926 26.5889 7.11903 27.4168C6.51369 28.5553 6.32886 29.6519 6.56471 30.7065C6.80041 31.7613 7.51345 32.605 8.7037 33.2379C9.84221 33.8433 10.9145 33.9489 11.9208 33.5544C12.927 33.1602 13.7328 32.3938 14.3381 31.2553C14.6958 30.5826 15.103 29.5047 15.5597 28.0215C15.9889 26.5902 16.3849 24.909 16.7479 22.9778L17.6095 18.8321L20.6424 21.7877C21.9715 23.1582 23.1883 24.303 24.2926 25.2221C25.4213 26.2205 26.3997 26.9399 27.2276 27.3801C28.3661 27.9855 29.4628 28.1703 30.5173 27.9344C31.5722 27.6987 32.4159 26.9857 33.0487 25.7954C33.6541 24.657 33.7597 23.5846 33.3652 22.5783C32.9711 21.5722 32.2046 20.7664 31.0661 20.161C30.3934 19.8033 29.3156 19.3962 27.8323 18.9394C26.4011 18.5103 24.7198 18.1142 22.7887 17.7512L18.644 16.8899L21.5995 13.857C22.97 12.5279 24.1148 11.3112 25.034 10.2068C26.0324 9.07812 26.7517 8.09981 27.192 7.2718C27.7973 6.13329 27.9821 5.03671 27.7463 3.98203Z" fill="#E90658"/>
</svg>
