<svg width="34" height="34" viewBox="0 0 34 34" fill="none" xmlns="http://www.w3.org/2000/svg">
<path fill-rule="evenodd" clip-rule="evenodd" d="M27.7463 3.6373C27.5106 2.5826 26.7976 1.73883 25.6073 1.10596C24.4688 0.500606 23.3964 0.395093 22.3902 0.789395C21.384 1.1837 20.5782 1.95009 19.9729 3.0886C19.6151 3.76135 19.208 4.83928 18.7513 6.32234C18.3221 7.75369 17.9261 9.43491 17.563 11.3661L16.7016 15.5114L13.6695 12.5566C12.3404 11.1861 11.1236 10.0413 10.0192 9.1221C8.89056 8.1237 7.91225 7.4044 7.08424 6.96414C5.94575 6.3588 4.84915 6.174 3.79447 6.40976C2.73977 6.64555 1.896 7.35855 1.26313 8.5488C0.657772 9.68731 0.552259 10.7597 0.946562 11.7659C1.34086 12.7721 2.10726 13.5779 3.24577 14.1832C3.91852 14.541 4.99644 14.9482 6.47951 15.4048C7.91083 15.834 9.59208 16.23 11.5233 16.593L15.6668 17.4541L12.7114 20.4868C11.341 21.8159 10.1961 23.0327 9.27704 24.1371C8.27863 25.2657 7.55926 26.2441 7.11903 27.0721C6.51369 28.2106 6.32886 29.3072 6.56471 30.3618C6.80041 31.4166 7.51345 32.2603 8.7037 32.8932C9.84221 33.4985 10.9145 33.6041 11.9208 33.2097C12.927 32.8155 13.7328 32.049 14.3381 30.9106C14.6958 30.2379 15.103 29.16 15.5597 27.6768C15.9889 26.2455 16.3849 24.5642 16.7479 22.6331L17.6095 18.4874L20.6424 21.443C21.9715 22.8135 23.1883 23.9583 24.2926 24.8774C25.4213 25.8758 26.3997 26.5952 27.2276 27.0354C28.3661 27.6407 29.4628 27.8256 30.5173 27.5897C31.5722 27.354 32.4159 26.641 33.0487 25.4507C33.6541 24.3122 33.7597 23.2399 33.3652 22.2336C32.9711 21.2274 32.2046 20.4216 31.0661 19.8163C30.3934 19.4586 29.3156 19.0515 27.8323 18.5947C26.4011 18.1656 24.7198 17.7695 22.7887 17.4065L18.644 16.5452L21.5995 13.5123C22.97 12.1832 24.1148 10.9665 25.034 9.86206C26.0324 8.7334 26.7517 7.75508 27.192 6.92707C27.7973 5.78856 27.9821 4.69198 27.7463 3.6373Z" fill="#FCC61A"/>
</svg>
